# Blender v2.78 (sub 0) OBJ File: 'case1blend.blend'
# www.blender.org
mtllib case11.mtl
o Cube.001
v 6.000000 0.001805 -5.999999
v 6.000000 0.001805 -0.000001
v 5.500000 0.001805 -0.000002
v 5.500000 0.001805 -6.000000
v 6.000000 0.522292 -5.999997
v 6.000000 0.522292 0.000000
v 5.500000 0.522292 -0.000003
v 5.500000 0.522292 -5.999999
v 6.000000 0.001805 -5.999999
v 6.000000 0.001805 -0.000001
v 5.500000 0.001805 -6.000000
v 6.000000 0.522292 -5.999997
v 5.500000 0.001805 -0.000002
v 6.000000 0.522292 0.000000
v 5.500000 0.522292 -0.000003
v 5.500000 0.522292 -5.999999
v 5.867581 0.701805 -4.410977
v 5.867581 0.701805 -1.589021
v 5.632419 0.701805 -4.410978
v 5.632419 0.701805 -1.589023
vt 0.0000 0.0000
vt 1.0000 0.0000
vt 1.0000 1.0000
vt 0.0000 1.0000
vt 0.0000 0.0000
vt 1.0000 0.0000
vt 1.0000 1.0000
vt 0.0000 1.0000
vt 1.0000 0.0000
vt 1.0000 1.0000
vt 0.0000 1.0000
vt 0.0000 0.0000
vt 1.0000 0.0000
vt 0.0000 1.0000
vt 0.0000 0.0000
vt 1.0000 1.0000
vt 0.0000 1.0000
vt 1.0000 0.0000
vt 1.0000 1.0000
vt 0.0000 1.0000
vt 0.0000 0.0000
vt 1.0000 0.0000
vt 1.0000 1.0000
vt 0.0000 1.0000
vt 0.0000 0.0000
vt 1.0000 0.0000
vt 1.0000 1.0000
vt 0.0000 1.0000
vt 1.0000 0.0000
vt 1.0000 1.0000
vt 0.0000 1.0000
vt 0.0000 0.0000
vt 1.0000 1.0000
vt 0.0000 1.0000
vt 0.0000 0.0000
vt 1.0000 0.0000
vt 1.0000 1.0000
vt 0.0000 0.0000
vt 1.0000 0.0000
vt 1.0000 1.0000
vt 0.0000 1.0000
vt 1.0000 1.0000
vt 0.0000 1.0000
vt 0.0000 0.0000
vt 1.0000 0.0000
vt 0.0000 0.0000
vt 0.0000 1.0000
vt 0.0000 0.0000
vt 1.0000 1.0000
vt 1.0000 0.0000
vt 1.0000 1.0000
vt 0.0000 1.0000
vn 0.0000 1.0000 0.0000
vn 0.0000 -1.0000 0.0000
vn -1.0000 0.0000 0.0000
vn 0.0000 0.0000 -1.0000
vn 1.0000 0.0000 0.0000
vn -0.0000 -0.0000 1.0000
vn -0.0000 0.9937 0.1123
vn 0.8047 0.5936 0.0000
vn -0.8047 0.5936 0.0000
vn 0.0000 0.9937 -0.1123
usemtl Material
s off
f 1/1/1 4/2/1 3/3/1 2/4/1
f 5/5/2 6/6/2 7/7/2 8/8/2
f 1/1/3 2/9/3 6/10/3 5/11/3
f 2/12/4 3/13/4 7/7/4 6/14/4
f 3/15/5 4/2/5 8/16/5 7/17/5
f 5/5/6 8/18/6 4/19/6 1/20/6
f 9/21/2 10/22/2 13/23/2 11/24/2
f 15/25/7 14/26/7 18/27/7 20/28/7
f 9/21/5 12/29/5 14/30/5 10/31/5
f 10/32/6 14/26/6 15/33/6 13/34/6
f 13/35/3 15/36/3 16/37/3 11/24/3
f 12/38/4 9/39/4 11/40/4 16/41/4
f 17/42/1 19/43/1 20/44/1 18/45/1
f 14/46/8 12/29/8 17/42/8 18/47/8
f 16/48/9 15/36/9 20/49/9 19/43/9
f 12/38/10 16/50/10 19/51/10 17/52/10
o Cube
v 0.500000 0.001805 -5.999999
v 0.500000 0.001805 -0.000001
v 0.000000 0.001805 -0.000002
v 0.000000 0.001805 -6.000000
v 0.500000 0.522292 -5.999997
v 0.500000 0.522292 0.000000
v 0.000000 0.522292 -0.000003
v 0.000000 0.522292 -5.999999
v 0.500000 0.001805 -5.999999
v 0.500000 0.001805 -0.000001
v 0.000000 0.001805 -6.000000
v 0.500000 0.522292 -5.999997
v 0.000000 0.001805 -0.000002
v 0.500000 0.522292 0.000000
v 0.000000 0.522292 -0.000003
v 0.000000 0.522292 -5.999999
v 0.367582 0.701805 -4.410977
v 0.367581 0.701805 -1.589021
v 0.132418 0.701805 -4.410978
v 0.132418 0.701805 -1.589023
vt 0.0000 0.0000
vt 1.0000 0.0000
vt 1.0000 1.0000
vt 0.0000 1.0000
vt 0.0000 0.0000
vt 1.0000 0.0000
vt 1.0000 1.0000
vt 0.0000 1.0000
vt 1.0000 0.0000
vt 1.0000 1.0000
vt 0.0000 1.0000
vt 0.0000 0.0000
vt 1.0000 0.0000
vt 0.0000 1.0000
vt 0.0000 0.0000
vt 1.0000 1.0000
vt 0.0000 1.0000
vt 1.0000 0.0000
vt 1.0000 1.0000
vt 0.0000 1.0000
vt 0.0000 0.0000
vt 1.0000 0.0000
vt 1.0000 1.0000
vt 0.0000 1.0000
vt 0.0000 0.0000
vt 1.0000 0.0000
vt 1.0000 1.0000
vt 0.0000 1.0000
vt 0.0000 0.5000
vt 1.0000 0.5000
vt 1.0000 1.0000
vt 0.0000 1.0000
vt 1.0000 0.5000
vt 0.0000 0.5000
vt 1.0000 0.0000
vt 0.0000 0.0000
vt 1.0000 0.0000
vt 1.0000 1.0000
vt 0.0000 0.0000
vt 1.0000 0.0000
vt 1.0000 1.0000
vt 0.0000 1.0000
vt 0.0000 0.0000
vt 1.0000 0.0000
vt 1.0000 1.0000
vt 0.0000 1.0000
vt 0.0000 0.0000
vt 1.0000 0.0000
vt 1.0000 1.0000
vt 0.0000 0.0000
vt 0.0000 1.0000
vt 1.0000 0.0000
vt 1.0000 1.0000
vt 0.0000 1.0000
vn 0.0000 1.0000 0.0000
vn 0.0000 -1.0000 -0.0000
vn -1.0000 0.0000 -0.0000
vn 0.0000 0.0000 -1.0000
vn 1.0000 0.0000 0.0000
vn -0.0000 -0.0000 1.0000
vn -0.0000 0.9937 0.1123
vn 0.8047 0.5936 0.0000
vn -0.8047 0.5936 -0.0000
vn 0.0000 0.9937 -0.1123
usemtl Material
s off
f 21/53/11 24/54/11 23/55/11 22/56/11
f 25/57/12 26/58/12 27/59/12 28/60/12
f 21/53/13 22/61/13 26/62/13 25/63/13
f 22/64/14 23/65/14 27/59/14 26/66/14
f 23/67/15 24/54/15 28/68/15 27/69/15
f 25/57/16 28/70/16 24/71/16 21/72/16
f 29/73/12 30/74/12 33/75/12 31/76/12
f 35/77/17 34/78/17 38/79/17 40/80/17
f 29/81/15 32/82/15 34/83/15 30/84/15
f 30/85/16 34/86/16 35/77/16 33/87/16
f 33/88/13 35/89/13 36/90/13 31/76/13
f 32/91/14 29/92/14 31/93/14 36/94/14
f 37/95/11 39/96/11 40/97/11 38/98/11
f 34/99/18 32/100/18 37/101/18 38/98/18
f 36/102/19 35/89/19 40/97/19 39/103/19
f 32/91/20 36/104/20 39/105/20 37/106/20
