# Blender v2.78 (sub 0) OBJ File: 'case1blend.blend'
# www.blender.org
mtllib case2.mtl
o Cube.001
v 6.000000 0.001805 -5.999999
v 6.000000 0.001805 -0.000001
v 5.500000 0.001805 -0.000002
v 5.500000 0.001805 -6.000000
v 6.000000 0.522292 -5.999997
v 6.000000 0.522292 0.000000
v 5.500000 0.522292 -0.000003
v 5.500000 0.522292 -5.999999
v 6.000000 0.001805 -5.999999
v 6.000000 0.001805 -0.000001
v 5.500000 0.001805 -6.000000
v 6.000000 0.522292 -5.999997
v 5.500000 0.001805 -0.000002
v 6.000000 0.522292 0.000000
v 5.500000 0.522292 -0.000003
v 5.500000 0.522292 -5.999999
v 5.867581 0.701805 -4.410977
v 5.867581 0.701805 -1.589021
v 5.632419 0.701805 -4.410978
v 5.632419 0.701805 -1.589023
vn 0.0000 1.0000 0.0000
vn 0.0000 -1.0000 0.0000
vn -1.0000 0.0000 0.0000
vn 0.0000 0.0000 -1.0000
vn 1.0000 0.0000 0.0000
vn -0.0000 -0.0000 1.0000
vn -0.0000 0.9937 0.1123
vn 0.8047 0.5936 0.0000
vn -0.8047 0.5936 0.0000
vn 0.0000 0.9937 -0.1123
usemtl Material
s off
f 1//1 4//1 3//1 2//1
f 5//2 6//2 7//2 8//2
f 1//3 2//3 6//3 5//3
f 2//4 3//4 7//4 6//4
f 3//5 4//5 8//5 7//5
f 5//6 8//6 4//6 1//6
f 9//2 10//2 13//2 11//2
f 15//7 14//7 18//7 20//7
f 9//5 12//5 14//5 10//5
f 10//6 14//6 15//6 13//6
f 13//3 15//3 16//3 11//3
f 12//4 9//4 11//4 16//4
f 17//1 19//1 20//1 18//1
f 14//8 12//8 17//8 18//8
f 16//9 15//9 20//9 19//9
f 12//10 16//10 19//10 17//10
o Cube
v 0.000001 0.001805 -6.000000
v 5.999999 0.001805 -6.000000
v 5.999998 0.001805 -5.500000
v 0.000000 0.001805 -5.500000
v 0.000003 0.522292 -6.000000
v 6.000000 0.522292 -6.000000
v 5.999997 0.522292 -5.500000
v 0.000001 0.522292 -5.500000
v 0.000001 0.001805 -6.000000
v 5.999999 0.001805 -6.000000
v 0.000000 0.001805 -5.500000
v 0.000003 0.522292 -6.000000
v 5.999998 0.001805 -5.500000
v 6.000000 0.522292 -6.000000
v 5.999997 0.522292 -5.500000
v 0.000001 0.522292 -5.500000
v 1.589023 0.701805 -5.867581
v 4.410979 0.701805 -5.867581
v 1.589022 0.701805 -5.632419
v 4.410977 0.701805 -5.632419
vn 0.0000 1.0000 0.0000
vn 0.0000 -1.0000 0.0000
vn 0.0000 0.0000 1.0000
vn -1.0000 0.0000 -0.0000
vn 0.0000 0.0000 -1.0000
vn 1.0000 -0.0000 0.0000
vn 0.1123 0.9937 0.0000
vn 0.0000 0.5936 -0.8047
vn 0.0000 0.5936 0.8047
vn -0.1123 0.9937 -0.0000
usemtl Material
s off
f 21//11 24//11 23//11 22//11
f 25//12 26//12 27//12 28//12
f 21//13 22//13 26//13 25//13
f 22//14 23//14 27//14 26//14
f 23//15 24//15 28//15 27//15
f 25//16 28//16 24//16 21//16
f 29//12 30//12 33//12 31//12
f 35//17 34//17 38//17 40//17
f 29//15 32//15 34//15 30//15
f 30//16 34//16 35//16 33//16
f 33//13 35//13 36//13 31//13
f 32//14 29//14 31//14 36//14
f 37//11 39//11 40//11 38//11
f 34//18 32//18 37//18 38//18
f 36//19 35//19 40//19 39//19
f 32//20 36//20 39//20 37//20
